<svg width="506" height="115" viewBox="0 0 506 115" fill="none" xmlns="http://www.w3.org/2000/svg">
<path fill-rule="evenodd" clip-rule="evenodd" d="M11.2555 54.3059C7.91886 54.1147 4.58677 53.9008 1.2553 53.6693C0.604409 53.6236 0.0728162 54.2404 0.0688133 55.0464C0.0648105 55.8524 0.590007 56.544 1.2409 56.5896C4.23972 56.7945 7.23895 56.9877 10.2362 57.169C10.4057 57.3171 10.7448 57.5372 11.3218 57.6796C29.3009 61.9753 48.6267 59.9276 66.9279 59.0475C84.1009 59.2181 101.277 59.0735 118.455 58.7596C116.411 58.9275 114.367 59.0897 112.321 59.24C111.896 59.2728 110.793 59.3622 110.642 59.4033C109.778 59.6604 109.77 60.5826 109.777 60.8172C109.78 60.9345 109.869 62.2304 111.043 62.3129C123.658 63.1861 136.242 62.2559 148.772 61.4539C153.433 61.1547 158.09 60.8431 162.749 60.5203C164.369 60.4028 168.588 60.3098 169.168 60.1954C169.792 60.0685 170.027 59.5873 170.115 59.2116C180.228 58.8211 190.354 58.5254 200.484 58.3179C202.47 58.3886 204.452 58.4648 206.435 58.541C228.04 59.3971 249.642 60.3521 271.245 61.0909C259.22 61.3375 247.166 61.6392 235.165 62.2275C232.707 62.3478 230.254 62.5506 227.798 62.6944C226.455 62.7678 222.98 62.7009 222.493 62.8787C221.769 63.1518 221.665 63.8411 221.651 64.1844C221.643 64.3939 221.716 65.5651 222.946 65.8996C245.769 72.126 268.985 74.1199 292.067 76.449C298.139 77.0602 304.21 77.7004 310.279 78.3637C295.799 78.1408 281.158 76.9526 266.691 75.9889C266.558 75.8333 266.367 75.6829 266.096 75.5757C265.697 75.4129 264.466 75.1777 262.225 74.8905C261.742 74.8291 261.311 75.136 261.108 75.6269C257.671 75.4183 254.243 75.2284 250.832 75.0755C239.662 74.573 228.499 74.5623 217.332 74.1244L214.804 73.9972L214.277 73.9716C212.34 73.8598 209.971 73.7099 208.397 73.6105C207.488 73.5469 205.126 73.4503 204.8 73.4478C203.815 73.4513 203.664 74.5736 203.658 74.6255C203.655 74.6543 203.695 76.3011 205.044 76.392C205.947 76.455 209.354 76.6367 214.129 76.8824C215.329 76.9504 216.382 77.0072 217.009 77.0327L217.492 77.0532C232.762 77.8112 257.231 78.9149 264.151 78.7413C286.698 80.1907 309.716 82.3605 331.934 80.7625C332.662 80.7061 332.978 80.4269 333.04 80.3639C333.378 79.9996 333.444 79.5747 333.424 79.2042C333.412 78.9691 333.301 78.0155 332.374 77.7627C331.722 77.5825 327.042 77.3009 325.239 77.0992C314.208 75.8648 303.176 74.6478 292.141 73.5357C272.244 71.5262 252.245 69.7798 232.485 65.3201C233.448 65.2556 234.411 65.197 235.375 65.1502C247.543 64.5519 259.766 64.2463 271.957 64.0012C309.814 63.2388 348.634 67.5311 386.288 64.9337C387.06 64.8822 387.4 64.6059 387.466 64.5434C387.825 64.1756 387.89 63.733 387.869 63.3566C387.857 63.1273 387.738 62.1611 386.794 61.9121C386.015 61.7056 380.419 61.3948 378.263 61.17C369.655 60.2728 361.039 59.3689 352.426 58.7225C338.208 57.6589 323.964 56.8142 309.726 56.216C308.506 55.8301 307.241 55.4684 305.936 55.1312C315.533 55.2772 325.126 55.5222 334.718 55.9014C374.036 57.4401 413.357 59.7681 452.677 62.4524C468.962 63.5669 485.497 65.8145 501.774 66.0749C502.351 66.0828 503.631 66.277 504.26 66.2851C504.619 66.2914 504.882 66.2222 505.007 66.1665C505.526 65.9224 505.689 65.4561 505.74 65.0879C505.783 64.8007 505.859 63.8569 504.88 63.2884C483.84 51.0609 450.775 53.6604 429.06 51.7048C340.39 43.7209 251.782 43.3354 163.364 45.9112C128.013 46.9388 92.7522 48.0057 57.4966 50.4234C44.9852 51.2802 32.4534 51.8834 20.0183 53.5087C18.3954 53.7251 14.9592 53.879 12.7595 54.0933C12.1674 54.1537 11.6524 54.2288 11.2555 54.3059ZM498.226 63.0661C477.515 54.2776 448.588 56.3833 429.006 54.6206C340.412 46.6454 251.879 46.2569 163.537 48.8297C128.211 49.8601 92.9749 50.9242 57.7433 53.3446C48.7807 53.9553 39.8068 54.4419 30.8671 55.2656C42.8312 55.7308 54.7969 56.0035 66.7772 56.1258C69.268 56.0034 71.7418 55.9023 74.1905 55.8451C104.265 55.1279 134.408 54.4654 164.565 54.6809C174.534 54.3848 184.504 54.071 194.481 53.7642C213.782 52.3446 240.127 50.2983 264.401 50.6726C272.751 50.8036 280.857 51.2222 288.353 52.0557C303.801 52.0979 319.239 52.3727 334.675 52.9803C374.012 54.5154 413.351 56.8513 452.694 59.5382C467.79 60.5684 483.097 62.5814 498.226 63.0661ZM309.539 59.128C300.416 58.7502 291.298 58.4781 282.194 58.3128C278.142 58.2439 274.09 58.1808 270.037 58.1292C272.251 58.2087 274.465 58.2824 276.679 58.3502C287.07 58.687 297.486 59.0442 307.873 59.1351C308.389 59.1361 309.082 59.1807 309.858 59.235L309.553 59.1355L309.539 59.128ZM365.757 62.8104C361.306 62.38 356.853 61.9728 352.401 61.6416C340.845 60.7791 329.272 60.055 317.698 59.4944C317.979 59.7254 318.129 59.9415 318.199 60.078C318.402 60.4637 318.439 60.8361 318.399 61.1705C318.375 61.3781 318.316 61.6227 318.177 61.8521C334.069 62.4188 349.98 63.0284 365.757 62.8104ZM293.834 55.6611C292.089 55.4077 290.302 55.1785 288.477 54.9744C279.446 54.9519 270.415 54.9995 261.395 55.1069C268.297 55.1765 275.205 55.2702 282.11 55.3928C286.016 55.4625 289.925 55.5501 293.834 55.6611Z" fill="#30A46C"/>
</svg>
